# AST/ASF file generated using VICON BodyLanguage
# -----------------------------------------------
:version 1.10
:name VICON
:units
  mass 1.0
  length 0.45
  angle deg
:documentation
   .ast/.asf automatically generated from VICON data using
   VICON BodyBuilder and BodyLanguage model FoxedUp or BRILLIANT.MOD
:root
   order TX TY TZ RX RY RZ
   axis XYZ
   position 0 0 0  
   orientation 0 0 0 
:bonedata
  begin
     id 1 
     name lhipjoint
     direction 0.602128 -0.715006 0.355257 
     length 2.21237 
     axis 0 0 0  XYZ
  end
  begin
     id 2 
     name lfemur
     direction 0.34202 -0.939693 0  
     length 6.71649  
     axis 0 0 20  XYZ
    dof rx ry rz
    limits (-160.0 20.0)
           (-70.0 70.0)
           (-60.0 70.0)
  end
  begin
     id 3 
     name ltibia
     direction 0.34202 -0.939693 0   
     length 6.97123   
     axis 0 0 20   XYZ
    dof rx
    limits (-10.0 170.0)
  end
  begin
     id 4 
     name lfoot
     direction 0.0655697 -0.180151 0.981451   
     length 1.80924   
     axis -90 7.62852e-016 20   XYZ
    dof rx rz
    limits (-45.0 90.0)
           (-70.0 20.0)
  end
  begin
     id 5 
     name ltoes
     direction 1.53545e-011 -4.21827e-011 1   
     length 0.916331   
     axis -90 7.62852e-016 20   XYZ
    dof rx
    limits (-90.0 20.0)
  end
  begin
     id 6 
     name rhipjoint
     direction -0.625414 -0.698792 0.347201   
     length 2.2637  
     axis 0 0 0  XYZ 
  end
  begin
     id 7 
     name rfemur
     direction -0.34202 -0.939693 0   
     length 7.07595   
     axis 0 0 -20   XYZ
    dof rx ry rz
    limits (-160.0 20.0)
           (-70.0 70.0)
           (-70.0 60.0)
  end
  begin
     id 8 
     name rtibia
     direction -0.34202 -0.939693 0   
     length 7.22924   
     axis 0 0 -20   XYZ
    dof rx
    limits (-10.0 170.0)
 end
 begin
     id 9 
     name rfoot
     direction -0.0766747 -0.210662 0.974547   
     length 1.98482  
     axis -90 -7.62852e-016 -20   XYZ
    dof rx rz
    limits (-45.0 90.0)
           (-20.0 70.0)
  end
  begin
     id 10 
     name rtoes
     direction -1.53532e-011 -4.21867e-011 1   
     length 0.999842   
     axis -90 -7.62852e-016 -20   XYZ
    dof rx
    limits (-90.0 20.0)
  end
  begin
     id 11 
     name lowerback
     direction -0.0224668 0.997354 -0.0691422   
     length 2.09945   
     axis 0 0 0   XYZ
    dof rx ry rz
    limits (-20.0 45.0)
           (-30.0 30.0)
           (-30.0 30.0)
  end
  begin
     id 12 
     name upperback
     direction 0.0134698 0.998451 -0.0539888   
     length 2.09758   
     axis 0 0 0   XYZ
    dof rx ry rz
    limits (-20.0 45.0)
           (-30.0 30.0)
           (-30.0 30.0)
  end
  begin
     id 13 
     name thorax
     direction 0.0241905 0.99948 -0.0213333   
     length 2.10428   
     axis 0 0 0   XYZ
    dof rx ry rz
    limits (-20.0 45.0)
           (-30.0 30.0)
           (-30.0 30.0)
  end
  begin
     id 14 
     name lowerneck
     direction -0.00866847 0.995978 0.0891737   
     length 1.3959   
     axis 0 0 0   XYZ
    dof rx ry rz
    limits (-20.0 45.0)
           (-30.0 30.0)
           (-30.0 30.0)
  end
  begin
     id 15 
     name upperneck
     direction 0.0680679 0.992203 0.104404   
     length 1.39452   
     axis 0 0 0   XYZ
    dof rx ry rz
    limits (-20.0 45.0)
           (-30.0 30.0)
           (-30.0 30.0)
  end
  begin
     id 16
     name head
     direction 0.0242216 0.999358 0.0264054  
     length 1.40433  
     axis 0 0 0   XYZ
    dof rx ry rz
    limits (-20.0 45.0)
           (-30.0 30.0)
           (-30.0 30.0)
  end
  begin
     id 17 
     name lclavicle
     direction 0.929368 0.362991 -0.0671771  
     length 3.04887  
     axis 0 0 0   XYZ
    dof ry rz
    limits (-20.0 10.0)
           (0.0 20.0)
  end
  begin
     id 18 
     name lhumerus
     direction 1 -4.48967e-011 -7.13741e-028   
     length 4.77195   
     axis -180 -30 -90   XYZ
    dof rx ry rz
    limits (-60.0 90.0)
           (-90.0 90.0)
           (-90.0 90.0)
  end
  begin
     id 19
     name lradius
     direction 1 -4.48977e-011 3.60404e-027   
     length 2.98444   
     axis -180 -30 -90   XYZ
    dof rx
    limits (-10.0 170.0)
  end
  begin
     id 20
     name lwrist
     direction 1 -4.48997e-011 7.54877e-027   
     length 1.49222   
     axis -7.18178e-015 90 90   XYZ
    dof ry
    limits (-180.0 0.0)
 end
  begin
     id 21 
     name lhand
     direction 1 -4.489e-011 1.51105e-026   
     length 0.992285   
     axis -9.63605e-015 90 90   XYZ
    dof rx rz
    limits (-90.0 90.0)
           (-45.0 45.0)
  end
  begin
     id 22 
     name lfingers
     direction 1 -4.48998e-011 3.01948e-026   
     length 0.800006   
     axis -1.92718e-014 90 90   XYZ
    dof rx
    limits (0.0 90.0)
  end
  begin
     id 23
     name lthumb
     direction 0.707107 -6.34881e-011 0.707107   
     length 1.14865   
     axis -90 45 -3.53137e-014   XYZ
    dof rx rz
    limits (-45.0 45.0)
           (-45.0 45.0)
  end
  begin
     id 24 
     name rclavicle
     direction -0.945672 0.324529 0.0196374   
     length 3.4236  
     axis 0 0 0   XYZ 
    dof ry rz
    limits (-10.0 20.0)
           (-20.0 0.0)
  end
  begin
     id 25 
     name rhumerus
     direction -1 -4.4896e-011 1.02757e-029  
     length 4.62052   
     axis -180 30 90   XYZ
    dof rx ry rz
    limits (-90.0 60.0)
           (-90.0 90.0)
           (-90.0 90.0)
  end
  begin
     id 26 
     name rradius
     direction -1 -4.48982e-011 3.85962e-027   
     length 2.95332   
     axis -180 30 90   XYZ
    dof rx
    limits (-10.0 170.0)
  end
  begin
     id 27 
     name rwrist
     direction -1 -4.48961e-011 7.55118e-027   
     length 1.47666   
     axis -7.18178e-015 -90 -90   XYZ
    dof ry
    limits (-180.0 0.0)
  end
  begin
     id 28
     name rhand
     direction -1 -4.48984e-011 1.50994e-026   
     length 0.990956   
     axis -9.63605e-015 -90 -90   XYZ
    dof rx rz
    limits (-90.0 90.0)
           (-45.0 45.0)
  end
  begin
     id 29
     name rfingers
     direction -1 -4.4892e-011 3.02158e-026   
     length 0.798934   
     axis -1.92718e-014 -90 -90   XYZ
    dof rx
    limits (0.0 90.0)
  end
  begin
     id 30
     name rthumb
     direction -0.707107 -6.34916e-011 0.707107   
     length 1.14711   
     axis -90 -45 3.53137e-014   XYZ
    dof rx rz
    limits (-45.0 45.0)
           (-45.0 45.0)
  end
:hierarchy
  begin
    root lhipjoint rhipjoint lowerback
    lhipjoint lfemur
    lfemur ltibia
    ltibia lfoot
    lfoot ltoes
    rhipjoint rfemur
    rfemur rtibia
    rtibia rfoot
    rfoot rtoes
    lowerback upperback
    upperback thorax
    thorax lowerneck lclavicle rclavicle
    lowerneck upperneck
    upperneck head
    lclavicle lhumerus
    lhumerus lradius
    lradius lwrist
    lwrist lhand lthumb
    lhand lfingers
    rclavicle rhumerus
    rhumerus rradius
    rradius rwrist
    rwrist rhand rthumb
    rhand rfingers
  end

#!OML:ASF H:\ManfredObstacles\Project 1\Capture day 1\Session 1\Male.ASF
:FULLY-SPECIFIED
:DEGREES
257
root 13.3662 16.2412 9.2012 -174.73 -54.0005 -177.01
lowerback -7.71195 -1.57832 -4.31552
upperback 2.23717 -1.63314 -0.766034
thorax 6.78431 -0.971027 1.39876
lowerneck -0.0696474 0.647202 -5.17839
upperneck -1.71913 0.905258 6.99487
head -0.594175 0.426476 3.14656
rclavicle -8.11041e-014 2.8625e-014
rhumerus -40.8512 -28.1909 -69.0598
rradius 24.5608
rwrist 36.1082
rhand 2.33567 -5.56005
rfingers 7.12502
rthumb 27.8256 -33.5197
lclavicle -8.11041e-014 2.8625e-014
lhumerus -24.7315 11.9672 81.3514
lradius 18.9479
lwrist -30.0369
lhand -8.09883 9.51713
lfingers 7.12502
lthumb 17.8137 38.7212
rfemur -35.0655 2.9291 17.5018
rtibia 51.3257
rfoot -15.832 -5.04516
rtoes -3.15536
lfemur -12.6473 4.90927 -25.359
ltibia 20.1964
lfoot -4.04929 -18.2367
ltoes 17.0443
258
root 13.2545 16.2546 9.08667 -174.87 -55.2476 -176.684
lowerback -7.81714 -1.8559 -4.73917
upperback 2.33244 -1.98024 -0.212732
thorax 7.00546 -1.17448 2.16392
lowerneck -0.186323 0.750972 -5.45598
upperneck -1.75803 1.05195 6.76265
head -0.596038 0.507397 3.11932
rclavicle 6.50026e-014 1.51076e-014
rhumerus -40.5801 -27.9168 -68.4247
rradius 24.3266
rwrist 36.2396
rhand 2.25891 -5.48952
rfingers 7.12502
rthumb 27.7522 -33.4611
lclavicle 6.50026e-014 1.51076e-014
lhumerus -24.4551 11.8995 82.2842
lradius 19.2385
lwrist -29.7233
lhand -7.91836 9.46196
lfingers 7.12502
lthumb 17.9874 38.6502
rfemur -35.546 4.03869 17.1911
rtibia 47.9251
rfoot -15.7222 -3.92834
rtoes -2.89684
lfemur -11.7961 4.51157 -24.9569
ltibia 19.3911
lfoot -3.72424 -18.9496
ltoes 17.4758
259
root 13.1346 16.2676 8.97748 -174.676 -56.3668 -176.746
lowerback -7.88423 -2.08583 -5.13219
upperback 2.34092 -2.26059 0.113165
thorax 7.10752 -1.33784 2.68486
lowerneck -0.157549 0.883997 -5.52685
upperneck -1.81843 1.23145 6.65301
head -0.631917 0.59847 3.09417
rclavicle 3.69739e-014 3.33958e-014
rhumerus -40.5946 -27.792 -67.8384
rradius 24.234
rwrist 36.5116
rhand 2.42959 -5.31001
rfingers 7.12502
rthumb 27.9154 -33.2551
lclavicle 3.69739e-014 3.33958e-014
lhumerus -24.3845 11.8565 82.966
lradius 19.5686
lwrist -29.4368
lhand -7.74589 9.31002
lfingers 7.12502
lthumb 18.1533 38.4829
rfemur -35.9547 4.83856 16.6668
rtibia 44.4883
rfoot -15.5149 -1.92606
rtoes -2.95849
lfemur -10.8593 4.22686 -24.8326
ltibia 18.4292
lfoot -3.53449 -19.7341
ltoes 16.7115
260
root 13.0146 16.2787 8.86891 -174.712 -57.5021 -176.542
lowerback -7.90672 -2.20143 -5.13114
upperback 2.32747 -2.42271 0.264632
thorax 7.12779 -1.42052 2.81981
lowerneck -0.149993 0.936336 -5.35417
upperneck -1.85469 1.30166 6.60733
head -0.647328 0.631959 3.04516
rclavicle -7.25564e-014 1.43125e-014
rhumerus -40.9359 -28.283 -67.2473
rradius 24.2002
rwrist 36.9334
rhand 2.40563 -5.11353
rfingers 7.12502
rthumb 27.8925 -33.0624
lclavicle -7.25564e-014 1.43125e-014
lhumerus -24.3688 11.3231 83.4709
lradius 19.9489
lwrist -28.953
lhand -7.57018 9.35289
lfingers 7.12502
lthumb 18.3224 38.51
rfemur -36.2533 5.44028 16.3971
rtibia 41.0805
rfoot -15.0973 0.710677
rtoes -1.5175
lfemur -9.9153 3.97493 -24.5378
ltibia 17.4567
lfoot -3.18245 -20.617
ltoes 16.6905
261
root 12.8956 16.2912 8.76216 -175.221 -58.5231 -175.891
lowerback -7.83075 -2.22957 -4.80584
upperback 2.34668 -2.50543 0.387245
thorax 7.10158 -1.44934 2.75657
lowerneck -0.171607 0.954465 -5.06858
upperneck -1.90848 1.32705 6.55568
head -0.65895 0.642086 2.97322
rclavicle 4.11484e-014 1.74931e-014
rhumerus -41.2276 -28.9352 -66.7846
rradius 24.0765
rwrist 37.3777
rhand 2.10268 -4.99061
rfingers 7.12502
rthumb 27.6028 -32.9861
lclavicle 4.11484e-014 1.74931e-014
lhumerus -24.4165 10.0947 83.9767
lradius 20.5237
lwrist -27.8371
lhand -7.48175 9.45157
lfingers 7.12502
lthumb 18.4074 38.6006
rfemur -36.4348 6.17138 16.4267
rtibia 37.8753
rfoot -14.5433 3.42036
rtoes -3.53064
lfemur -8.74858 3.66097 -23.9679
ltibia 16.2077
lfoot -3.23945 -20.877
ltoes 14.3624
262
root 12.7715 16.3042 8.65242 -175.784 -59.6815 -175.153
lowerback -7.80101 -2.38245 -4.47013
upperback 2.32626 -2.75681 0.556398
thorax 7.07551 -1.56077 2.71116
lowerneck -0.120966 1.03233 -4.91988
upperneck -2.01337 1.43248 6.54667
head -0.706206 0.691616 2.94124
rclavicle -2.0276e-014 7.95139e-015
rhumerus -41.2748 -29.1016 -66.5855
rradius 23.8857
rwrist 37.6688
rhand 2.0389 -5.04865
rfingers 7.12502
rthumb 27.5418 -33.0539
lclavicle -2.0276e-014 7.95139e-015
lhumerus -24.6948 8.82232 84.4727
lradius 21.2562
lwrist -26.5158
lhand -7.49052 9.50188
lfingers 7.12502
lthumb 18.399 38.6517
rfemur -36.5492 6.50848 16.5848
rtibia 34.9177
rfoot -13.5694 6.98069
rtoes 3.45919
lfemur -7.58513 3.23783 -23.3411
ltibia 14.9062
lfoot -2.49978 -21.2733
ltoes 15.1627
263
root 12.6447 16.3091 8.53969 -175.46 -60.7277 -175.565
lowerback -7.70369 -2.60557 -4.87104
upperback 2.30174 -3.02903 0.714671
thorax 7.05016 -1.71478 3.06712
lowerneck 0.0440267 1.17273 -5.08174
upperneck -2.20266 1.62196 6.54115
head -0.809118 0.784461 2.96823
rclavicle 9.34288e-015 -1.51076e-014
rhumerus -41.1147 -28.9208 -66.3446
rradius 23.6773
rwrist 38.0131
rhand 2.18707 -5.31442
rfingers 7.12502
rthumb 27.6835 -33.297
lclavicle 9.34288e-015 -1.51076e-014
lhumerus -24.999 8.51705 84.9382
lradius 21.7162
lwrist -25.9896
lhand -7.50926 9.35495
lfingers 7.12502
lthumb 18.381 38.5065
rfemur -36.5025 6.70432 16.2092
rtibia 32.2966
rfoot -12.5383 10.2437
rtoes 5.79041
lfemur -6.34403 2.4651 -23.3527
ltibia 13.7513
lfoot -1.71807 -21.3018
ltoes 16.9905
264
root 12.5106 16.3053 8.42542 -175.668 -61.7362 -175.323
lowerback -7.74625 -2.77337 -4.90283
upperback 2.29074 -3.26378 0.95943
thorax 7.10303 -1.83818 3.30703
lowerneck 0.148963 1.2843 -5.32691
upperneck -2.34936 1.77292 6.56123
head -0.887487 0.860149 3.02006
rclavicle 5.57591e-014 -4.57205e-014
rhumerus -40.979 -28.5542 -66.2122
rradius 23.5717
rwrist 38.0108
rhand 1.91627 -5.59641
rfingers 7.12502
rthumb 27.4245 -33.6203
lclavicle 5.57591e-014 -4.57205e-014
lhumerus -25.1368 8.80658 85.2259
lradius 21.8166
lwrist -26.1698
lhand -7.45846 9.0213
lfingers 7.12502
lthumb 18.4298 38.1683
rfemur -36.384 6.55318 16.4744
rtibia 30.1078
rfoot -11.164 12.8452
rtoes 5.9282
lfemur -5.22217 1.56875 -23.0367
ltibia 12.8082
lfoot -1.28202 -21.1565
ltoes 18.1922
265
root 12.3707 16.2833 8.30927 -175.761 -62.8432 -175.342
lowerback -7.72992 -2.93475 -4.93606
upperback 2.32158 -3.48223 1.03987
thorax 7.15638 -1.95068 3.37775
lowerneck 0.187127 1.3281 -5.3461
upperneck -2.44399 1.83351 6.58035
head -0.928947 0.889196 3.02967
rclavicle 7.81224e-014 1.19271e-015
rhumerus -41.0488 -28.4056 -66.188
rradius 23.6375
rwrist 37.7019
rhand 1.76157 -5.68804
rfingers 7.12502
rthumb 27.2765 -33.7353
lclavicle 7.81224e-014 1.19271e-015
lhumerus -25.2585 8.70966 85.3577
lradius 21.9299
lwrist -26.048
lhand -7.65677 9.65251
lfingers 7.12502
lthumb 18.2391 38.8174
rfemur -36.1725 5.26604 17.211
rtibia 28.5226
rfoot -9.85357 15.4928
rtoes 2.95064
lfemur -3.94551 0.763582 -22.8648
ltibia 11.826
lfoot -0.8732 -21.1822
ltoes 18.5833
266
root 12.2283 16.2533 8.18839 -175.545 -64.016 -175.825
lowerback -7.6103 -3.14456 -5.21667
upperback 2.34656 -3.74136 1.05408
thorax 7.16246 -2.09148 3.51578
lowerneck 0.385228 1.37049 -5.01744
upperneck -2.63466 1.88807 6.35047
head -1.02008 0.911467 2.88809
rclavicle -1.28216e-014 5.1684e-015
rhumerus -41.1264 -28.4299 -66.0525
rradius 23.6361
rwrist 37.3607
rhand 1.94731 -5.69183
rfingers 7.12502
rthumb 27.4542 -33.711
lclavicle -1.28216e-014 5.1684e-015
lhumerus -25.3523 8.61059 85.4146
lradius 21.9061
lwrist -25.7749
lhand -8.16535 10.6773
lfingers 7.12502
lthumb 17.7497 39.8872
rfemur -35.6853 3.79799 17.8909
rtibia 27.4743
rfoot -8.60937 17.4696
rtoes 3.04965
lfemur -2.70217 -0.0632235 -22.9148
ltibia 11.1823
lfoot -0.544371 -21.2821
ltoes 18.7295
267
root 12.0845 16.2465 8.06062 -175.491 -65.2695 -175.985
lowerback -7.67978 -3.26298 -5.33933
upperback 2.38545 -3.89145 1.17798
thorax 7.27916 -2.17726 3.68809
lowerneck 0.954915 1.23828 -4.08815
upperneck -3.38158 1.70424 5.19945
head -1.31671 0.813517 2.33217
rclavicle 6.95746e-016 -1.03368e-014
rhumerus -41.1673 -28.4399 -65.7589
rradius 23.5888
rwrist 36.8266
rhand 1.82816 -5.74612
rfingers 7.12502
rthumb 27.3402 -33.7833
lclavicle 6.95746e-016 -1.03368e-014
lhumerus -25.0351 9.01107 85.6049
lradius 21.4601
lwrist -26.3497
lhand -8.43939 10.0627
lfingers 7.12502
lthumb 17.486 39.2963
rfemur -35.0944 3.56966 18.0673
rtibia 27.0138
rfoot -6.96677 17.8311
rtoes 8.04643
lfemur -1.68656 -1.08582 -22.7683
ltibia 10.7169
lfoot -0.0645745 -21.2083
ltoes 19.6517
268
root 11.936 16.2293 7.93089 -175.503 -66.5175 -175.99
lowerback -7.94619 -3.2184 -5.22139
upperback 2.49153 -3.83663 1.28773
thorax 7.54005 -2.15591 3.73072
lowerneck -0.559762 1.06253 -6.17745
upperneck -2.19573 1.50642 7.0054
head -0.711127 0.743206 3.34084
rclavicle -3.39922e-014 -1.63003e-014
rhumerus -41.4303 -29.1338 -65.0661
rradius 23.5823
rwrist 36.9015
rhand 1.68186 -5.68628
rfingers 7.12502
rthumb 27.2003 -33.7455
lclavicle -3.39922e-014 -1.63003e-014
lhumerus -24.6826 8.58036 85.9821
lradius 21.2711
lwrist -26.5512
lhand -8.01554 9.03811
lfingers 7.12502
lthumb 17.8939 38.2349
rfemur -34.6116 2.93679 18.532
rtibia 27.0943
rfoot -5.46509 18.3914
rtoes 6.31685
lfemur -0.708819 -2.28729 -22.5313
ltibia 10.199
lfoot 0.693707 -20.8783
ltoes 21.6976
269
root 11.7784 16.2275 7.80309 -175.709 -67.5188 -175.838
lowerback -8.2246 -3.21543 -5.0087
upperback 2.55209 -3.8441 1.33157
thorax 7.75411 -2.15609 3.64162
lowerneck 0.312503 0.837117 -4.97137
upperneck -3.34718 1.18371 5.5717
head -1.18095 0.567925 2.62756
rclavicle 3.926e-014 -2.82274e-014
rhumerus -41.7752 -29.8925 -64.4408
rradius 23.4802
rwrist 37.5984
rhand 1.84167 -5.44865
rfingers 7.12502
rthumb 27.3532 -33.4838
lclavicle 3.926e-014 -2.82274e-014
lhumerus -24.4592 8.8788 85.9537
lradius 20.9755
lwrist -27.0953
lhand -7.39597 9.04119
lfingers 7.12502
lthumb 18.49 38.1824
rfemur -33.9772 2.43526 18.9747
rtibia 27.4772
rfoot -2.56145 19.2724
rtoes 18.7984
lfemur 0.22942 -3.47341 -22.2613
ltibia 9.99738
lfoot 0.701801 -20.4008
ltoes 21.5192
270
root 11.6215 16.2298 7.67042 -176.641 -68.3808 -174.805
lowerback -8.5581 -3.16203 -4.4655
upperback 2.48604 -3.81649 1.31609
thorax 7.83062 -2.115 3.31079
lowerneck 0.457255 0.798934 -4.65775
upperneck -3.34402 1.12811 5.42284
head -1.19694 0.536566 2.51993
rclavicle -1.77912e-014 2.0276e-014
rhumerus -42.3689 -30.5048 -64.099
rradius 23.4316
rwrist 37.942
rhand 1.98004 -5.44936
rfingers 7.12502
rthumb 27.4855 -33.4636
lclavicle -1.77912e-014 2.0276e-014
lhumerus -24.5172 8.90682 85.646
lradius 20.7296
lwrist -27.2235
lhand -7.45511 9.45382
lfingers 7.12502
lthumb 18.4331 38.6005
rfemur -33.408 2.75156 19.4783
rtibia 27.9858
rfoot -3.87615 17.5057
rtoes 16.4004
lfemur 0.696948 -4.50359 -21.6484
ltibia 10.4785
lfoot 0.486686 -20.1157
ltoes 21.0735
